<?xml version="1.0" standalone="no"?>
<!DOCTYPE svg PUBLIC "-//W3C//DTD SVG 20010904//EN"
 "http://www.w3.org/TR/2001/REC-SVG-20010904/DTD/svg10.dtd">
<svg version="1.0" xmlns="http://www.w3.org/2000/svg"
 width="1280.000000pt" height="1280.000000pt" viewBox="0 0 1280.000000 1280.000000"
 preserveAspectRatio="xMidYMid meet">
<g transform="translate(0.000000,1280.000000) scale(0.100000,-0.100000)"
fill="#000000" stroke="none">
<path d="M6135 12789 c-44 -4 -168 -15 -275 -24 -2390 -188 -4514 -1770 -5405
-4025 -228 -578 -373 -1196 -420 -1795 -8 -104 -20 -237 -25 -295 -13 -134
-13 -366 0 -500 5 -58 17 -190 25 -295 135 -1714 1005 -3340 2375 -4441 985
-792 2209 -1281 3445 -1379 105 -8 237 -20 295 -25 134 -13 366 -13 500 0 58
5 191 17 295 25 1777 140 3447 1064 4549 2515 730 960 1178 2127 1271 3305 8
105 20 237 25 295 6 58 10 170 10 250 0 80 -4 192 -10 250 -5 58 -17 191 -25
295 -130 1648 -939 3218 -2225 4317 -1012 865 -2293 1400 -3595 1503 -104 8
-237 20 -295 25 -121 12 -398 11 -515 -1z m630 -999 c639 -55 1205 -324 1509
-719 64 -83 141 -222 175 -316 51 -143 66 -233 66 -405 -1 -137 -6 -187 -48
-435 -44 -263 -139 -841 -241 -1465 -25 -151 -72 -440 -106 -642 -33 -203 -87
-531 -119 -730 -33 -200 -81 -489 -106 -643 -62 -375 -103 -497 -230 -691 -99
-149 -250 -293 -405 -385 -48 -28 -75 -39 -89 -34 -17 5 -21 2 -21 -18 0 -89
-84 -299 -165 -412 -55 -77 -185 -199 -258 -243 -48 -29 -174 -87 -229 -105
-17 -6 -18 -92 -18 -1619 0 -1028 -4 -1629 -10 -1656 -17 -72 -52 -135 -105
-188 -80 -81 -105 -86 -402 -82 l-248 3 -46 27 c-60 35 -115 97 -148 167 l-26
56 -5 1835 -5 1835 -47 95 c-74 149 -92 226 -92 405 1 134 4 160 27 238 99
325 332 552 661 644 46 13 102 18 224 18 149 0 160 1 120 13 -198 57 -476 30
-682 -67 -309 -144 -523 -422 -587 -758 -9 -48 -16 -63 -28 -63 -24 0 -174 78
-252 130 -86 57 -274 248 -331 335 -149 230 -228 504 -215 755 3 59 38 306 80
560 42 250 119 721 172 1045 53 325 102 595 108 602 12 12 133 -1 1567 -156
102 -11 315 -34 473 -52 159 -17 299 -28 313 -25 35 9 64 62 64 118 0 60 -16
94 -49 107 -14 5 -222 30 -461 56 -395 41 -934 99 -1602 171 -136 15 -252 31
-259 35 -10 6 -10 23 0 80 13 79 21 90 61 83 14 -2 196 -22 405 -44 444 -47
580 -62 1205 -130 725 -78 706 -77 729 -56 44 40 53 155 16 196 -21 23 -1 21
-560 80 -258 28 -551 59 -650 70 -99 11 -391 42 -650 70 -258 28 -476 52 -482
55 -7 2 -13 17 -13 32 1 47 28 185 39 196 7 7 62 4 168 -7 244 -27 574 -62
838 -91 132 -14 485 -52 785 -85 606 -65 576 -66 606 5 24 59 11 145 -26 165
-9 5 -354 45 -766 90 -412 44 -787 85 -834 90 -47 5 -213 23 -370 40 -350 37
-352 37 -360 50 -9 14 22 196 35 209 6 6 70 3 180 -9 471 -53 2046 -221 2113
-227 72 -5 78 -4 99 18 27 29 42 93 32 138 -15 73 37 63 -870 161 -744 81
-1293 140 -1452 157 -32 3 -61 11 -63 18 -8 20 46 313 73 400 56 178 156 336
298 474 332 321 888 482 1490 431z"/>
</g>
</svg>
