<?xml version="1.0" standalone="no"?>
<!DOCTYPE svg PUBLIC "-//W3C//DTD SVG 20010904//EN"
 "http://www.w3.org/TR/2001/REC-SVG-20010904/DTD/svg10.dtd">
<svg version="1.0" xmlns="http://www.w3.org/2000/svg"
 width="1158.000000pt" height="1280.000000pt" viewBox="0 0 1158.000000 1280.000000"
 preserveAspectRatio="xMidYMid meet">
<g transform="translate(0.000000,1280.000000) scale(0.100000,-0.100000)"
fill="#000000" stroke="none">
<path d="M5713 12766 c-212 -114 -474 -444 -720 -906 -75 -140 -174 -356 -323
-705 -151 -353 -200 -477 -200 -502 1 -22 31 11 173 187 129 160 183 221 461
519 265 284 521 570 621 694 39 47 77 86 86 86 14 1 40 -41 203 -336 101 -183
315 -461 422 -549 24 -19 44 -41 44 -48 0 -7 -30 -33 -67 -59 -95 -64 -250
-225 -318 -330 -62 -97 -131 -237 -164 -337 -91 -280 -61 -618 81 -905 187
-375 501 -617 920 -707 145 -31 370 -30 518 1 202 43 385 123 530 232 96 73
241 223 301 314 172 258 259 604 215 854 -49 278 -134 470 -297 665 -238 285
-617 466 -975 466 -61 0 -95 4 -102 13 -5 6 -26 55 -47 107 -98 256 -244 466
-520 749 -230 236 -438 413 -550 468 -56 28 -169 63 -202 63 -15 0 -56 -15
-90 -34z"/>
<path d="M9885 10817 c-112 -54 -265 -187 -387 -337 l-36 -44 -160 82 c-87 45
-189 93 -226 107 -65 25 -130 33 -140 17 -17 -28 83 -147 264 -314 61 -56 110
-106 110 -111 0 -6 -20 -51 -44 -101 -138 -282 -150 -502 -30 -552 93 -39 246
36 433 212 89 84 94 87 116 73 13 -7 110 -77 217 -154 106 -77 283 -200 393
-274 110 -74 202 -141 203 -148 2 -8 -6 -35 -18 -61 -121 -256 -142 -456 -57
-528 35 -29 114 -33 179 -8 76 30 201 120 293 213 50 50 93 91 98 91 4 0 74
-33 155 -73 81 -40 171 -80 201 -90 53 -17 112 -22 124 -11 15 15 -69 121
-195 244 l-138 136 32 49 c52 83 145 286 169 370 16 56 23 108 23 172 1 105
-13 134 -78 167 -34 17 -44 17 -93 6 -127 -28 -280 -142 -449 -333 l-60 -69
-100 74 c-178 132 -376 273 -547 387 -92 62 -169 116 -172 120 -2 4 24 64 59
134 35 69 76 165 91 212 32 101 44 233 26 288 -31 94 -130 114 -256 54z"/>
<path d="M3595 9705 c-114 -19 -251 -58 -315 -90 -83 -42 -249 -174 -365 -290
-273 -274 -526 -633 -743 -1055 -124 -240 -197 -408 -387 -885 -172 -435 -234
-609 -221 -622 12 -12 137 124 307 337 191 238 184 230 660 746 443 480 668
732 892 997 87 103 164 187 171 187 7 0 152 -69 322 -153 335 -165 483 -222
774 -296 218 -55 403 -82 610 -88 341 -10 564 50 721 195 82 76 139 160 180
267 l31 80 -57 52 c-196 179 -501 321 -901 422 -247 62 -660 138 -989 182
-210 27 -560 35 -690 14z"/>
<path d="M9860 9453 c-39 -44 -92 -116 -292 -393 -42 -58 -153 -197 -248 -310
-674 -805 -787 -943 -1004 -1230 -81 -107 -155 -197 -163 -198 -15 -4 -42 22
-337 331 -303 318 -614 546 -933 682 -183 79 -231 90 -383 90 -176 -1 -225
-18 -321 -114 -71 -71 -118 -156 -159 -284 l-22 -69 28 -51 c158 -296 458
-584 874 -843 174 -108 488 -282 658 -364 452 -219 722 -244 927 -86 94 72
152 127 238 227 264 304 493 698 702 1204 132 320 495 1376 495 1441 0 25 -17
15 -60 -33z"/>
<path d="M5305 8276 c-256 -81 -490 -369 -587 -723 -30 -109 -33 -370 -4 -453
67 -195 207 -283 388 -245 102 21 198 76 298 172 104 98 172 194 240 335 136
282 153 586 44 775 -32 56 -105 118 -161 137 -55 19 -162 20 -218 2z"/>
<path d="M1002 7540 c-110 -39 -274 -171 -397 -319 -32 -39 -64 -71 -69 -71
-6 0 -80 36 -166 79 -219 111 -321 146 -359 122 -30 -19 153 -227 332 -376 26
-21 47 -43 47 -47 0 -5 -22 -54 -49 -111 -76 -159 -104 -254 -105 -367 -1 -73
3 -102 17 -127 67 -124 263 -61 494 160 l94 90 32 -24 c164 -121 434 -311 602
-424 113 -76 205 -142 205 -148 0 -5 -14 -39 -31 -75 -17 -36 -44 -106 -62
-156 -27 -79 -31 -105 -32 -196 0 -93 3 -109 22 -136 80 -113 272 -42 499 185
l92 91 163 -80 c181 -88 294 -125 309 -101 17 29 -33 97 -176 238 -79 77 -144
144 -144 147 0 3 17 31 37 63 46 73 124 238 151 323 61 188 46 335 -39 370
-117 49 -321 -73 -546 -325 l-62 -70 -43 32 c-190 141 -443 320 -595 423 -101
68 -183 127 -183 131 0 5 26 59 58 121 32 62 73 158 92 213 28 84 33 115 34
195 1 73 -3 102 -17 127 -34 63 -107 78 -205 43z"/>
<path d="M4820 6544 c-343 -184 -540 -388 -540 -562 0 -69 26 -157 66 -230
155 -276 707 -598 1456 -847 216 -72 399 -119 753 -195 294 -63 556 -127 569
-140 6 -6 -72 -93 -215 -237 -404 -410 -618 -640 -1209 -1298 -222 -247 -482
-536 -577 -641 -94 -105 -290 -304 -435 -442 -224 -213 -330 -321 -442 -451
l-21 -24 41 7 c52 7 285 130 643 339 152 88 404 235 561 325 601 348 1114 665
1451 898 908 629 1571 1294 1671 1676 15 60 0 144 -43 237 -124 268 -428 491
-1294 949 -827 437 -1503 640 -2246 676 l-105 5 -84 -45z"/>
<path d="M4150 5449 c-124 -24 -242 -118 -433 -344 -165 -194 -654 -850 -907
-1215 -193 -279 -734 -1044 -1330 -1880 -579 -812 -1132 -1594 -1229 -1739
-43 -63 -121 -218 -121 -240 0 -13 64 18 128 61 186 128 1116 979 1962 1798
151 146 435 418 630 605 771 737 1536 1532 1713 1780 141 199 215 464 188 676
-15 113 -52 231 -92 292 -104 157 -317 244 -509 206z"/>
</g>
</svg>
